<svg width="37" height="36" viewBox="0 0 37 36" fill="none" xmlns="http://www.w3.org/2000/svg">
<path d="M18.4223 11.0654C16.5789 11.0654 14.811 11.7962 13.5076 13.0969C12.2041 14.3977 11.4718 16.1619 11.4718 18.0014C11.4718 19.841 12.2041 21.6052 13.5076 22.9059C14.811 24.2067 16.5789 24.9374 18.4223 24.9374C20.2657 24.9374 22.0335 24.2067 23.337 22.9059C24.6405 21.6052 25.3728 19.841 25.3728 18.0014C25.3728 16.1619 24.6405 14.3977 23.337 13.0969C22.0335 11.7962 20.2657 11.0654 18.4223 11.0654V11.0654ZM18.4223 22.5059C17.2247 22.5059 16.0762 22.0312 15.2294 21.1862C14.3826 20.3411 13.9069 19.195 13.9069 17.9999C13.9069 16.8049 14.3826 15.6587 15.2294 14.8137C16.0762 13.9687 17.2247 13.4939 18.4223 13.4939C19.6198 13.4939 20.7684 13.9687 21.6152 14.8137C22.462 15.6587 22.9377 16.8049 22.9377 17.9999C22.9377 19.195 22.462 20.3411 21.6152 21.1862C20.7684 22.0312 19.6198 22.5059 18.4223 22.5059V22.5059Z" fill="white" fill-opacity="0.78"/>
<path d="M25.6479 12.4275C26.5428 12.4275 27.2682 11.7035 27.2682 10.8105C27.2682 9.91744 26.5428 9.19348 25.6479 9.19348C24.753 9.19348 24.0275 9.91744 24.0275 10.8105C24.0275 11.7035 24.753 12.4275 25.6479 12.4275Z" fill="white" fill-opacity="0.78"/>
<path d="M31.25 9.16645C30.902 8.26972 30.3703 7.45537 29.6888 6.77553C29.0073 6.0957 28.191 5.56535 27.2923 5.21845C26.2406 4.82448 25.1295 4.61146 24.0064 4.58845C22.5589 4.52545 22.1005 4.50745 18.4298 4.50745C14.7592 4.50745 14.2887 4.50745 12.8532 4.58845C11.7309 4.61028 10.6207 4.82335 9.57035 5.21845C8.67138 5.56495 7.85493 6.09515 7.17336 6.77504C6.4918 7.45493 5.96017 8.26948 5.61261 9.16645C5.21774 10.2159 5.00476 11.3247 4.9828 12.4454C4.91816 13.8884 4.89862 14.3459 4.89862 18.0104C4.89862 21.6734 4.89862 22.1399 4.9828 23.5754C5.00534 24.6974 5.21728 25.8044 5.61261 26.8559C5.96115 27.7526 6.49329 28.5668 7.17502 29.2466C7.85675 29.9264 8.67308 30.4568 9.57186 30.8039C10.6202 31.2137 11.7309 31.442 12.8562 31.4789C14.3037 31.5419 14.7622 31.5614 18.4328 31.5614C22.1035 31.5614 22.5739 31.5614 24.0094 31.4789C25.1324 31.4562 26.2434 31.2437 27.2953 30.8505C28.1938 30.5027 29.0098 29.9719 29.6912 29.2919C30.3727 28.6119 30.9046 27.7976 31.253 26.9009C31.6483 25.8509 31.8603 24.7439 31.8828 23.6219C31.9475 22.1789 31.967 21.7214 31.967 18.0569C31.967 14.3924 31.967 13.9274 31.8828 12.4919C31.8653 11.3554 31.6513 10.2303 31.25 9.16645V9.16645ZM29.4192 23.4644C29.4095 24.3289 29.2514 25.1853 28.9517 25.9964C28.726 26.5798 28.3804 27.1095 27.9372 27.5515C27.494 27.9935 26.963 28.338 26.3784 28.5629C25.5745 28.8606 24.7255 29.0184 23.8681 29.0294C22.4402 29.0954 22.0373 29.112 18.3757 29.112C14.7111 29.112 14.3368 29.1119 12.8818 29.0294C12.0249 29.019 11.1762 28.8612 10.373 28.5629C9.78633 28.3394 9.25319 27.9955 8.8081 27.5534C8.363 27.1113 8.01587 26.5809 7.78914 25.9964C7.4937 25.194 7.33566 24.3477 7.32167 23.4929C7.25703 22.0679 7.242 21.6659 7.242 18.0119C7.242 14.3564 7.242 13.9829 7.32167 12.5294C7.33138 11.6655 7.4895 10.8096 7.78914 9.99895C8.2476 8.81545 9.18705 7.88395 10.373 7.43095C11.1766 7.13416 12.025 6.97639 12.8818 6.96445C14.3112 6.89995 14.7126 6.88195 18.3757 6.88195C22.0388 6.88195 22.4146 6.88195 23.8681 6.96445C24.7255 6.97474 25.5747 7.13255 26.3784 7.43095C26.963 7.65636 27.4939 8.00125 27.9371 8.44349C28.3802 8.88573 28.7258 9.41555 28.9517 9.99895C29.2472 10.8014 29.4052 11.6477 29.4192 12.5024C29.4838 13.9289 29.5004 14.3294 29.5004 17.9849C29.5004 21.6389 29.5004 22.0319 29.4357 23.4659H29.4192V23.4644Z" fill="white" fill-opacity="0.78"/>
</svg>
