<svg width="37" height="36" viewBox="0 0 37 36" fill="none" xmlns="http://www.w3.org/2000/svg">
<path d="M30.035 11.9956C30.0545 12.2581 30.0545 12.5191 30.0545 12.7801C30.0545 20.7676 23.9623 29.9716 12.8286 29.9716C9.3985 29.9716 6.21186 28.9801 3.53027 27.2581C4.01729 27.3136 4.48627 27.3331 4.99282 27.3331C7.71799 27.3396 10.366 26.4303 12.51 24.7516C11.2465 24.7287 10.0217 24.3128 9.00654 23.5617C7.99142 22.8106 7.23667 21.7619 6.84768 20.5621C7.22196 20.6176 7.59775 20.6551 7.99157 20.6551C8.5342 20.6551 9.07983 20.5801 9.58639 20.4496C8.21517 20.1733 6.98218 19.4316 6.09705 18.3506C5.21192 17.2696 4.72931 15.916 4.73128 14.5201V14.4451C5.53846 14.8936 6.47491 15.1741 7.46697 15.2116C6.63588 14.6604 5.9544 13.9126 5.48335 13.0348C5.0123 12.1569 4.76632 11.1763 4.76735 10.1806C4.76735 9.05857 5.06647 8.02957 5.59107 7.13257C7.11244 9.0001 9.00994 10.5279 11.1607 11.6171C13.3114 12.7062 15.6674 13.3324 18.0761 13.4551C17.9829 13.0051 17.9258 12.5386 17.9258 12.0706C17.9254 11.277 18.0817 10.4912 18.3858 9.75793C18.69 9.0247 19.1359 8.35848 19.6982 7.79735C20.2605 7.23622 20.9282 6.79118 21.6629 6.48768C22.3977 6.18418 23.1852 6.02817 23.9804 6.02857C25.724 6.02857 27.2978 6.75756 28.4041 7.93657C29.7596 7.67499 31.0594 7.1812 32.2461 6.47706C31.7943 7.87329 30.8478 9.05722 29.5841 9.80707C30.7862 9.67023 31.9612 9.35474 33.0698 8.87107C32.2418 10.0757 31.2157 11.1321 30.035 11.9956V11.9956Z" fill="white" fill-opacity="0.78"/>
</svg>
